<svg fill="none" height="30" viewBox="0 0 70 30" width="70" xmlns="http://www.w3.org/2000/svg" xmlns:xlink="http://www.w3.org/1999/xlink"><clipPath id="a"><path d="m0 0h70v30h-70z"/></clipPath><g clip-path="url(#a)"><path d="m70 0h-70v15h70z" fill="#d81421"/><path d="m70 15h-70v15h70z" fill="#164a9a"/><g fill="#fff"><path d="m21.4694 2.7749c2.7583 0 4.2492 1.65 4.2492 3.6h-1.4164c0-1.275-1.1182-2.325-2.8328-2.325-1.0436 0-1.8636.3-2.3855.975-.5964.6-.82 1.425-.82 2.475 0 2.1 1.1928 3.45 3.2801 3.45 1.7146 0 2.8328-.975 2.8328-2.175h1.4164c0 1.875-1.491 3.525-4.2492 3.525-3.0565 0-4.7711-2.025-4.7711-4.725 0-2.775 1.6401-4.8 4.6965-4.8z"/><path d="m30.5641 5.40003c2.1618 0 3.6528 1.5 3.6528 3.45 0 1.87497-1.491 3.44997-3.6528 3.44997-2.1619 0-3.6529-1.5-3.6529-3.44997-.0745-1.95 1.491-3.525 3.6529-3.45zm0 1.2c-1.4164 0-2.2365.9-2.2365 2.25 0 1.27497.8946 2.24997 2.2365 2.24997 1.4164 0 2.2364-.9 2.2364-2.24997 0-1.35-.8946-2.25-2.2364-2.25z"/><path d="m35.4844 3h1.3418v9h-1.3418z"/><path d="m41.8209 5.40003c2.1619 0 3.6528 1.5 3.6528 3.45 0 1.87497-1.4909 3.44997-3.6528 3.44997s-3.6528-1.5-3.6528-3.44997c-.0746-1.95 1.4909-3.525 3.6528-3.45zm0 1.2c-1.4164 0-2.2364.9-2.2364 2.25 0 1.27497.8945 2.24997 2.2364 2.24997 1.4164 0 2.2364-.9 2.2364-2.24997 0-1.35-.8945-2.25-2.2364-2.25z"/><path d="m46.6665 5.54971h1.3419v1.275c.5218-.9 1.4164-1.5 2.6091-1.5 1.6401 0 2.6837 1.125 2.6837 3v3.67499h-1.3418v-3.37499c0-1.425-.5964-2.1-1.7146-2.1-1.2673 0-2.1619.975-2.1619 2.475v2.99999h-1.3418v-6.44999z"/><path d="m55.4629 2.7749c.5219 0 .8946.375.8946.9s-.3727.9-.8946.9c-.5218 0-.8945-.375-.8945-.9 0-.45.3727-.9.8945-.9zm-.6709 2.775h1.3419v6.45h-1.3419z"/><path d="m65.8999 3h1.3419v9h-1.3419z"/><path d="m61.2031 5.3999c-2.2364 0-3.3546.675-3.5037 2.175h1.3418c.1491-.75.7455-1.125 2.0874-1.125 1.3418 0 1.8637.375 1.8637 1.35l-3.0565.375c-1.64.225-2.5346.525-2.6091 1.8 0 1.35 1.1927 2.25 2.7582 2.25 1.1928 0 2.311-.525 2.8328-1.35v1.125h1.3419v-3.825c.0745-2.175-.9691-2.775-3.0565-2.775zm1.7892 4.425c-.2237.375-.5964.675-1.0437.9s-.9691.375-1.491.375c-.9691 0-1.4909-.45-1.4909-1.125 0-.6.4473-.825 1.3419-.9l2.7582-.375v1.125z"/><path d="m2.7583 18h6.85836v1.275h-5.36741v2.625h4.62194v1.275h-4.62194v3.825h-1.49095z"/><path d="m11.4804 17.7749c.5218 0 .8945.375.8945.9s-.3727.9-.8945.9c-.5219 0-.8946-.375-.8946-.9-.0746-.45.3727-.9.8946-.9zm-.7455 2.775h1.3418v6.45h-1.3418z"/><path d="m29.7445 25.8748v1.125h-.7455c-1.5655 0-2.0873-.375-2.0873-1.8v-3.45h-1.1182v-1.125h1.1182v-1.575h1.3418v1.575h1.4164v1.125h-1.4164v3.15c0 .9.2237 1.05 1.3419 1.05h.1491z"/><path d="m34.441 23.7749c0 .825.2982 1.35.82 1.65s1.2673.45 2.0873.45c1.6401 0 2.4601-.525 2.4601-1.5 0-.675-.3727-.975-1.64-1.125l-2.3856-.225c-1.9382-.225-2.8328-.9-2.8328-2.325 0-1.8 1.4164-2.925 4.0256-2.925 1.2673 0 2.2364.3 2.9819.825s1.1182 1.425 1.1182 2.625h-1.4909c0-1.425-.8946-2.1-2.7583-2.1-1.5655 0-2.5346.6-2.5346 1.5 0 .75.5964 1.05 1.9382 1.2l2.2364.225c1.8637.225 2.6837.9 2.6837 2.4 0 1.05-.3727 1.8-1.0436 2.175-.6709.45-1.6401.675-2.8328.675-2.8328 0-4.3983-1.05-4.3983-3.45h1.5655z"/><path d="m46.2938 25.8748v1.125h-.7455c-1.5655 0-2.0873-.375-2.0873-1.8v-3.45h-1.1182v-1.125h1.1182v-1.575h1.2673v1.575h1.4164v1.125h-1.4164v3.15c0 .9.2236 1.05 1.3418 1.05h.2237z"/><path d="m59.1908 25.8748v1.125h-.7455c-1.5655 0-2.0873-.375-2.0873-1.8v-3.45h-1.1183v-1.125h1.1183v-1.575h1.3418v1.575h1.4164v1.125h-1.4164v3.15c0 .9.2237 1.05 1.3419 1.05h.1491z"/><path d="m18.1151 20.3997c-.1491-.075-.3727-.075-.5218-.075-1.1182 0-2.1619.6-2.5346 1.575v-1.35h-1.3419v6.45h1.3419v-2.925c0-1.35.7454-2.4 1.9382-2.475h1.1182z"/><path d="m51.1393 20.3999c-2.2364 0-3.3546.675-3.5037 2.175h1.3418c.1491-.75.7455-1.125 2.0874-1.125 1.3418 0 1.8637.375 1.8637 1.35l-2.9819.375c-1.6401.225-2.5347.525-2.6092 1.8 0 1.35 1.1928 2.25 2.7583 2.25 1.1927 0 2.3109-.525 2.8328-1.35v1.125h1.3418v-3.825c.0746-2.175-.9691-2.775-3.131-2.775zm1.8637 4.425c-.2236.375-.5964.675-1.0437.9-.4472.225-.9691.375-1.4909.375-.9691 0-1.491-.45-1.491-1.125 0-.6.4473-.825 1.3419-.9l2.7582-.375v1.125z"/><path d="m65.6763 25.1999c-.2981.525-.9691.9-1.9382.9-1.3418 0-2.1619-.75-2.3855-1.875h5.8147v-.525c0-1.875-1.4164-3.3-3.5037-3.3-2.1619 0-3.6529 1.5-3.6529 3.45 0 1.875 1.3419 3.45 3.7274 3.45 1.7146 0 3.0565-.825 3.3546-2.025h-1.4164zm-2.0127-3.675c1.3418 0 2.1618.75 2.2364 1.8h-4.4729c.2237-1.125 1.0437-1.8 2.2365-1.8z"/><path d="m23.1096 23.4749-1.9383-.225c-.82-.15-1.1927-.3-1.1927-.825 0-.6.5964-.975 1.7146-.975 1.3418 0 2.0127.525 2.0127 1.425h1.2673c0-1.575-1.1927-2.475-3.28-2.475-1.8637 0-2.9074.75-2.9074 2.1 0 1.05.6709 1.575 2.0128 1.8l1.7146.225c.8946.15 1.3418.3 1.3418.825 0 .6-.5963.9-1.7146.9-1.4164 0-2.1618-.525-2.1618-1.275h-1.3419c0 1.5 1.2673 2.325 3.4292 2.325 2.0128 0 2.9819-.75 2.9819-2.025 0-1.125-.6709-1.575-1.9382-1.8z"/></g></g></svg>